<svg xmlns="http://www.w3.org/2000/svg"  viewBox="0 0 24 24" width="96px" height="96px"><path d="M22.45,13.11l-0.82-0.41C22.89,11.18,23,10.28,23,10c0-0.32-0.15-0.62-0.42-0.81c-0.26-0.19-0.59-0.24-0.9-0.14L17,10.61 V3c0-0.33-0.17-0.65-0.45-0.83l-3-2c-0.43-0.29-1.01-0.2-1.34,0.21L1.23,14.32c-0.31,0.4-0.28,0.96,0.07,1.32l2.98,3.06 c0.23,0.23,0.54,0.33,0.86,0.29l5.92-0.85l0.15,3.02c0.02,0.36,0.23,0.68,0.55,0.84l3.79,1.89C15.69,23.96,15.85,24,16,24 c0.18,0,0.37-0.05,0.53-0.15C16.82,23.67,17,23.35,17,23v-6.08c1.22-0.16,3.39-0.64,5.55-2.09c0.3-0.2,0.47-0.54,0.45-0.89 C22.98,13.58,22.77,13.26,22.45,13.11z M13,12c0,0.43-0.28,0.81-0.68,0.95l-3,1C9.21,13.98,9.11,14,9,14 c-0.31,0-0.62-0.15-0.81-0.42c-0.26-0.35-0.25-0.83,0.01-1.18l3-4c0.26-0.34,0.71-0.49,1.12-0.35C12.72,8.19,13,8.57,13,9V12z"/></svg>
